<?xml version="1.0" encoding="UTF-8" standalone="no"?>
<!-- Created with Inkscape (http://www.inkscape.org/) -->

<svg
   xmlns:dc="http://purl.org/dc/elements/1.1/"
   xmlns:cc="http://creativecommons.org/ns#"
   xmlns:rdf="http://www.w3.org/1999/02/22-rdf-syntax-ns#"
   xmlns:svg="http://www.w3.org/2000/svg"
   xmlns="http://www.w3.org/2000/svg"
   xmlns:xlink="http://www.w3.org/1999/xlink"
   xmlns:sodipodi="http://sodipodi.sourceforge.net/DTD/sodipodi-0.dtd"
   xmlns:inkscape="http://www.inkscape.org/namespaces/inkscape"
   width="32"
   version="1.1"
   height="32"
   viewBox="0 0 32 32"
   id="svg2"
   inkscape:version="0.91 r13725"
   sodipodi:docname="folder-publicshare.svg">
  <sodipodi:namedview
     pagecolor="#ffffff"
     bordercolor="#666666"
     borderopacity="1"
     objecttolerance="10"
     gridtolerance="10"
     guidetolerance="10"
     inkscape:pageopacity="0"
     inkscape:pageshadow="2"
     inkscape:window-width="956"
     inkscape:window-height="1051"
     id="namedview17"
     showgrid="false"
     inkscape:zoom="14.75"
     inkscape:cx="17.137545"
     inkscape:cy="15.587033"
     inkscape:window-x="960"
     inkscape:window-y="0"
     inkscape:window-maximized="0"
     inkscape:current-layer="g4261" />
  <defs
     id="defs5455">
    <linearGradient
       inkscape:collect="always"
       xlink:href="#linearGradient4209"
       id="linearGradient4342"
       y1="29"
       y2="8"
       x2="0"
       gradientUnits="userSpaceOnUse"
       gradientTransform="matrix(1 0 0 1 384.57142 515.798)" />
    <linearGradient
       inkscape:collect="always"
       id="linearGradient4209">
      <stop
         style="stop-color:#eb0a42"
         id="stop4211" />
      <stop
         offset="1"
         style="stop-color:#f62459"
         id="stop4213" />
    </linearGradient>
  </defs>
  <metadata
     id="metadata5458">
    <rdf:RDF>
      <cc:Work
         rdf:about="">
        <dc:format>image/svg+xml</dc:format>
        <dc:type
           rdf:resource="http://purl.org/dc/dcmitype/StillImage" />
        <dc:title></dc:title>
      </cc:Work>
    </rdf:RDF>
  </metadata>
  <g
     inkscape:label="Capa 1"
     inkscape:groupmode="layer"
     id="g4261"
     transform="matrix(1 0 0 1 -384.57143 -515.798)">
    <path
       inkscape:connector-curvature="0"
       style="fill:#9d072c;fill-rule:evenodd"
       id="path4308"
       d="m 386.57143,518.798 0,7 0,1 28,0 0,-6 -14.00001,0 -2,-2 z" />
    <path
       inkscape:connector-curvature="0"
       style="fill-opacity:0.235294;fill-rule:evenodd"
       id="path4306"
       d="m 397.57142,523.798 -1.99999,1 -9,0 0,1 6.99999,0 3,0 z" />
    <path
       inkscape:connector-curvature="0"
       style="fill:url(#linearGradient4342)"
       id="rect4294"
       d="m 397.57142,523.798 -2,2 -9,0 -1,0 0,19 11,0 1,0 18,0 0,-21 -18,0 z" />
    <path
       inkscape:connector-curvature="0"
       style="fill:#ffffff;fill-opacity:0.235294;fill-rule:evenodd"
       id="path4304"
       d="m 397.57142,523.798 -2,2 -10,0 0,1 11,0 z" />
    <path
       inkscape:connector-curvature="0"
       style="fill:#ffffff;fill-opacity:0.235294;fill-rule:evenodd"
       id="path4310"
       d="m 398.57142,518.798 1,3 15.00001,0 0,-1 -14.00001,0 z" />
    <rect
       width="30"
       x="385.57144"
       y="543.79797"
       height="1"
       style="fill-opacity:0.235294"
       id="rect4292" />
    <path
       inkscape:connector-curvature="0"
       style="fill:#800000;stroke-width:1.15470099"
       id="rect4214"
       d="m 402.57143,528.798 c -1.10457,0 -2,0.89543 -2,2 0,1.10457 0.89543,2 2,2 1.10457,0 2,-0.89543 2,-2 0,-1.10457 -0.89543,-2 -2,-2 z m -4,1 c -1.10457,0 -2,0.89543 -2,2 0,1.10457 0.89543,2 2,2 1.10457,0 2,-0.89543 2,-2 0,-1.10457 -0.89543,-2 -2,-2 z m 4,4 c -0.30461,10e-4 -0.60801,0.029 -0.9043,0.082 0.33702,0.26622 0.63832,0.57475 0.89649,0.91797 l 0.008,0 c 1.65685,0 3,0.89543 3,2 l -2.10547,0 c 0.0687,0.32894 0.10401,0.66397 0.10547,1 l 1.5957,0 1.17188,0 0.23242,0 0,-1 c 0,-1.65686 -1.79086,-3 -4,-3 z m -4,1 c -2.20914,0 -4,1.34314 -4,3 l 0,1 0.23437,0 1.17383,0 5.1875,0 1.17188,0 0.23242,0 0,-1 c 0,-1.65686 -1.79086,-3 -4,-3 z m 0,1 c 1.65685,0 3,0.89543 3,2 l -6,0 c 0,-1.10457 1.34315,-2 3,-2 z" />
  </g>
</svg>
