<?xml version="1.0" encoding="UTF-8" standalone="no"?>
<!-- Created with Inkscape (http://www.inkscape.org/) -->

<svg
   xmlns:dc="http://purl.org/dc/elements/1.1/"
   xmlns:cc="http://creativecommons.org/ns#"
   xmlns:rdf="http://www.w3.org/1999/02/22-rdf-syntax-ns#"
   xmlns:svg="http://www.w3.org/2000/svg"
   xmlns="http://www.w3.org/2000/svg"
   xmlns:xlink="http://www.w3.org/1999/xlink"
   xmlns:sodipodi="http://sodipodi.sourceforge.net/DTD/sodipodi-0.dtd"
   xmlns:inkscape="http://www.inkscape.org/namespaces/inkscape"
   width="32"
   version="1.1"
   height="32"
   viewBox="0 0 32 32"
   id="svg2"
   inkscape:version="0.92.3 (2405546, 2018-03-11)"
   sodipodi:docname="folder-download.svg">
  <sodipodi:namedview
     pagecolor="#ffffff"
     bordercolor="#666666"
     borderopacity="1"
     objecttolerance="10"
     gridtolerance="10"
     guidetolerance="10"
     inkscape:pageopacity="0"
     inkscape:pageshadow="2"
     inkscape:window-width="956"
     inkscape:window-height="1021"
     id="namedview17"
     showgrid="false"
     inkscape:zoom="14.75"
     inkscape:cx="17.137545"
     inkscape:cy="15.587033"
     inkscape:window-x="883"
     inkscape:window-y="33"
     inkscape:window-maximized="0"
     inkscape:current-layer="g4261" />
  <defs
     id="defs5455">
    <linearGradient
       inkscape:collect="always"
       xlink:href="#linearGradient4209"
       id="linearGradient4342"
       y1="29"
       y2="8"
       x2="0"
       gradientUnits="userSpaceOnUse"
       gradientTransform="matrix(1 0 0 1 384.57142 515.798)" />
    <linearGradient
       inkscape:collect="always"
       id="linearGradient4209">
      <stop
         style="stop-color:#eb0a42"
         id="stop4211" />
      <stop
         offset="1"
         style="stop-color:#f62459"
         id="stop4213" />
    </linearGradient>
  </defs>
  <metadata
     id="metadata5458">
    <rdf:RDF>
      <cc:Work
         rdf:about="">
        <dc:format>image/svg+xml</dc:format>
        <dc:type
           rdf:resource="http://purl.org/dc/dcmitype/StillImage" />
        <dc:title></dc:title>
      </cc:Work>
    </rdf:RDF>
  </metadata>
  <g
     inkscape:label="Capa 1"
     inkscape:groupmode="layer"
     id="g4261"
     transform="matrix(1 0 0 1 -384.57143 -515.798)">
    <path
       inkscape:connector-curvature="0"
       style="fill:#9d072c;fill-rule:evenodd"
       id="path4308"
       d="m 386.57143,518.798 0,7 0,1 28,0 0,-6 -14.00001,0 -2,-2 z" />
    <path
       inkscape:connector-curvature="0"
       style="fill-opacity:0.235294;fill-rule:evenodd"
       id="path4306"
       d="m 397.57142,523.798 -1.99999,1 -9,0 0,1 6.99999,0 3,0 z" />
    <path
       inkscape:connector-curvature="0"
       style="fill:url(#linearGradient4342)"
       id="rect4294"
       d="m 397.57142,523.798 -2,2 -9,0 -1,0 0,19 11,0 1,0 18,0 0,-21 -18,0 z" />
    <path
       inkscape:connector-curvature="0"
       style="fill:#ffffff;fill-opacity:0.235294;fill-rule:evenodd"
       id="path4304"
       d="m 397.57142,523.798 -2,2 -10,0 0,1 11,0 z" />
    <path
       inkscape:connector-curvature="0"
       style="fill:#ffffff;fill-opacity:0.235294;fill-rule:evenodd"
       id="path4310"
       d="m 398.57142,518.798 1,3 15.00001,0 0,-1 -14.00001,0 z" />
    <rect
       width="30"
       x="385.57144"
       y="543.79797"
       height="1"
       style="fill-opacity:0.235294"
       id="rect4292" />
    <path
       inkscape:connector-curvature="0"
       style="fill:#800000"
       id="rect4184"
       d="m 402.57143,538.798 v -1 -3 h -1 v 3 h -2.00391 v -3 h -0.99609 v 4 z m 0.79297,-3.79687 0.70703,-0.70704 -2.5,-2.5 -0.79297,-0.79296 -0.20703,-0.20704 -0.20703,0.20704 -0.79688,0.79687 -2.49609,2.49609 0.70703,0.70704 1.79297,-1.79297 1,-1 1,1 z m 2.20703,-4.20313 v -1 -1 h -1 -9 v 1 1 h 1 v -1 h 8 v 1 z" />
  </g>
</svg>
